<svg xmlns="http://www.w3.org/2000/svg" width="519" height="271" fill="none" viewBox="0 0 519 271">
  <path fill="#000" d="M95.264 19.52c0 4.693-1.664 16.939-4.992 36.736-3.243 19.712-4.864 33.75-4.864 42.112 0 8.277 1.621 14.251 4.864 17.92-2.645 3.072-5.59 4.608-8.832 4.608-6.656 0-9.984-5.632-9.984-16.896 0-4.608 1.536-16.81 4.608-36.608 3.072-19.883 4.608-33.92 4.608-42.112-12.544 25.173-19.883 41.088-22.016 47.744-2.133 6.57-3.2 11.392-3.2 14.464 0 .683.085 1.707.256 3.072-.597.768-1.792 1.45-3.584 2.048a15.778 15.778 0 0 1-5.248.896c-3.755 0-6.656-1.195-8.704-3.584-1.963-2.475-3.755-6.997-5.376-13.568-1.621-6.656-3.499-14.677-5.632-24.064-2.133-9.387-4.096-17.365-5.888-23.936-.17 1.621-1.792 11.776-4.864 30.464-2.987 18.603-4.48 31.915-4.48 39.936s1.664 13.867 4.992 17.536c-1.195 3.072-3.541 4.608-7.04 4.608-6.23 0-9.344-5.632-9.344-16.896 0-4.693 1.493-16.853 4.48-36.48 3.072-19.712 4.608-33.45 4.608-41.216 0-7.85-.896-13.568-2.688-17.152 1.963-1.963 4.95-2.901 8.96-2.816 4.01 0 7.424 1.152 10.24 3.456 2.901 2.219 5.12 5.93 6.656 11.136 1.621 5.12 3.712 13.824 6.272 26.112 2.645 12.288 5.248 22.528 7.808 30.72 1.877-5.12 5.29-12.843 10.24-23.168 4.95-10.41 9.13-19.584 12.544-27.52 3.413-8.021 5.12-13.781 5.12-17.28 2.73-2.39 6.656-3.584 11.776-3.584 2.901 0 5.077 1.067 6.528 3.2 1.45 2.048 2.176 5.419 2.176 10.112Zm40.799-7.168c0 2.133-.469 4.736-1.408 7.808-3.157 1.963-6.059 2.944-8.704 2.944-2.56 0-4.395-.47-5.504-1.408-1.024-.939-1.536-2.261-1.536-3.968 0-1.707.299-4.352.896-7.936 3.157-1.963 6.101-2.944 8.832-2.944 4.949 0 7.424 1.835 7.424 5.504Zm-12.16 108.544c-6.656 0-9.984-5.632-9.984-16.896 0-4.693.896-12.63 2.688-23.808 1.792-11.179 2.688-20.352 2.688-27.52 0-7.168-.896-12.459-2.688-15.872 2.133-1.963 4.736-2.944 7.808-2.944 6.229 0 9.344 3.243 9.344 9.728 0 2.048-.981 10.07-2.944 24.064-1.963 13.91-2.944 24.619-2.944 32.128s1.621 13.013 4.864 16.512c-2.645 3.072-5.589 4.608-8.832 4.608Zm59.908 1.28c-10.325 0-18.133-3.285-23.424-9.856-5.205-6.571-7.808-15.061-7.808-25.472 0-6.23.981-12.501 2.944-18.816 1.963-6.4 4.651-12.245 8.064-17.536 3.413-5.376 7.808-9.728 13.184-13.056 5.376-3.328 11.179-4.992 17.408-4.992 11.861 0 17.792 3.456 17.792 10.368 0 4.693-1.92 8.619-5.76 11.776-2.048-4.01-4.48-7.083-7.296-9.216-2.731-2.219-6.059-3.328-9.984-3.328s-7.253 1.067-9.984 3.2a21.466 21.466 0 0 0-6.4 7.68c-1.451 2.987-2.645 6.4-3.584 10.24-1.707 6.656-2.56 13.056-2.56 19.2 0 9.899 1.707 17.45 5.12 22.656 3.413 5.12 8.32 7.68 14.72 7.68 8.021 0 13.909-4.309 17.664-12.928 1.792 1.877 2.688 4.267 2.688 7.168 0 4.779-2.475 8.533-7.424 11.264-4.864 2.645-9.984 3.968-15.36 3.968Zm54.941-3.072c-2.901 1.195-5.76 1.792-8.576 1.792-2.731 0-4.693-1.067-5.888-3.2-1.109-2.219-1.664-5.717-1.664-10.496 0-4.779 1.749-17.579 5.248-38.4 5.888-35.584 6.741-57.557 2.56-65.92 2.048-1.877 4.693-2.816 7.936-2.816 3.328 0 5.717 1.024 7.168 3.072 1.451 2.048 2.176 5.803 2.176 11.264 0 5.376-1.451 16.256-4.352 32.64-2.816 16.384-4.48 26.624-4.992 30.72 9.045-21.675 16.811-35.328 23.296-40.96 2.987-2.56 5.973-3.84 8.96-3.84 9.899 0 14.848 7.381 14.848 22.144 0 4.267-.512 10.41-1.536 18.432-.939 8.021-1.408 14.123-1.408 18.304 0 12.032 1.877 20.181 5.632 24.448-2.987 3.072-5.973 4.608-8.96 4.608-7.083 0-10.624-8.277-10.624-24.832 0-6.144.683-13.867 2.048-23.168 1.451-9.387 2.176-15.36 2.176-17.92 0-2.645-.512-4.693-1.536-6.144-1.024-1.536-2.816-2.304-5.376-2.304-3.413 0-7.509 3.925-12.288 11.776-4.779 7.765-8.832 16.555-12.16 26.368-3.243 9.728-4.864 17.365-4.864 22.912 0 5.547.725 9.387 2.176 11.52Zm85.768 2.688c-5.803 0-10.411-2.859-13.824-8.576-3.328-5.717-4.992-13.568-4.992-23.552 0-16.043 3.584-29.568 10.752-40.576 7.253-11.093 16.171-16.64 26.752-16.64 7.253 0 13.269 2.859 18.048 8.576.683-2.645 1.536-4.523 2.56-5.632 1.109-1.11 2.773-1.664 4.992-1.664 2.304 0 4.437 1.11 6.4 3.328-1.536 4.096-2.859 10.965-3.968 20.608s-1.664 18.645-1.664 27.008c0 8.277.427 14.72 1.28 19.328.939 4.523 2.475 8.576 4.608 12.16-2.475 3.157-5.376 4.736-8.704 4.736-7.339 0-11.008-9.003-11.008-27.008 0-2.901.341-7.979 1.024-15.232-4.437 12.373-9.728 22.656-15.872 30.848-6.059 8.192-11.52 12.288-16.384 12.288Zm19.2-80.512c-7.253 0-13.184 4.224-17.792 12.672-4.523 8.448-6.784 19.285-6.784 32.512 0 6.741.853 12.075 2.56 16 1.792 3.84 4.181 5.76 7.168 5.76 3.072 0 6.912-3.328 11.52-9.984 4.693-6.656 8.96-14.763 12.8-24.32 3.84-9.643 6.187-18.304 7.04-25.984-5.803-4.437-11.307-6.656-16.512-6.656Zm70.595 42.752c-2.304 0-4.608-.128-6.912-.384.085 9.472 1.835 16.683 5.248 21.632 3.499 4.949 8.363 7.424 14.592 7.424 8.789 0 15.189-4.309 19.2-12.928 2.048 1.963 3.072 4.352 3.072 7.168 0 4.779-2.688 8.533-8.064 11.264-5.291 2.645-10.837 3.968-16.64 3.968-10.325 0-18.133-3.285-23.424-9.856-5.205-6.571-7.808-15.061-7.808-25.472 0-6.23.981-12.501 2.944-18.816 1.963-6.4 4.651-12.245 8.064-17.536 3.413-5.376 7.808-9.728 13.184-13.056 5.376-3.328 11.264-4.992 17.664-4.992 6.4 0 11.264 1.621 14.592 4.864 3.413 3.243 5.12 7.424 5.12 12.544 0 8.277-3.84 16.043-11.52 23.296-7.595 7.253-17.365 10.88-29.312 10.88Zm27.392-29.952c0-3.499-1.109-6.357-3.328-8.576-2.133-2.304-5.12-3.456-8.96-3.456-3.755 0-7.04 1.067-9.856 3.2-2.731 2.133-4.907 4.992-6.528 8.576-2.901 6.656-4.693 13.867-5.376 21.632 2.048.256 3.968.384 5.76.384 8.704 0 15.573-2.219 20.608-6.656 5.12-4.523 7.68-9.557 7.68-15.104Zm54.145-40.832c0 4.693-1.664 17.963-4.992 39.808-3.243 21.845-4.864 36.992-4.864 45.44 0 8.363 1.621 14.293 4.864 17.792-2.645 3.072-5.589 4.608-8.832 4.608-6.656 0-9.984-5.632-9.984-16.896 0-4.181 1.493-16.64 4.48-37.376 3.072-20.736 4.608-35.627 4.608-44.672 0-9.13-.896-15.488-2.688-19.072.939-.768 2.261-1.408 3.968-1.92 1.792-.597 3.328-.896 4.608-.896 2.987 0 5.205 1.024 6.656 3.072 1.451 2.048 2.176 5.419 2.176 10.112ZM80.288 167.52c0 4.693-1.664 16.939-4.992 36.736-3.243 19.712-4.864 33.707-4.864 41.984 0 8.192 1.75 14.208 5.248 18.048-1.195 3.072-3.84 4.608-7.936 4.608s-7.552-1.067-10.368-3.2c-2.816-2.219-5.632-6.016-8.448-11.392-2.73-5.376-7.168-17.621-13.312-36.736-6.144-19.115-10.965-32.469-14.464-40.064-.085.768-1.664 10.539-4.736 29.312-2.987 18.688-4.48 32.043-4.48 40.064 0 7.936 1.664 13.739 4.992 17.408-1.195 3.072-3.541 4.608-7.04 4.608-6.23 0-9.344-5.632-9.344-16.896 0-4.693 1.493-16.853 4.48-36.48 3.072-19.712 4.608-33.451 4.608-41.216 0-7.851-.896-13.568-2.688-17.152.427-.768 1.45-1.451 3.072-2.048 1.621-.597 3.84-.896 6.656-.896s5.376.853 7.68 2.56c2.304 1.707 4.65 4.907 7.04 9.6 2.475 4.693 6.741 16.853 12.8 36.48 6.144 19.541 11.221 33.579 15.232 42.112.341-3.328 1.877-14.08 4.608-32.256 2.73-18.261 4.096-31.189 4.096-38.784 0-7.595-.896-13.184-2.688-16.768.683-.768 1.835-1.451 3.456-2.048 1.707-.597 3.115-.896 4.224-.896 2.475 0 4.267 1.024 5.376 3.072 1.195 2.048 1.792 5.461 1.792 10.24Zm70.855 8.576c0-13.312-.939-21.717-2.816-25.216 2.133-1.877 4.864-2.816 8.192-2.816 3.328 0 5.717 1.067 7.168 3.2 1.451 2.133 2.176 5.632 2.176 10.496 0 4.779-1.195 15.275-3.584 31.488-2.389 16.213-3.584 28.672-3.584 37.376 0 8.704.427 15.488 1.28 20.352.853 4.864 2.432 9.259 4.736 13.184-2.389 3.157-5.291 4.736-8.704 4.736-7.253 0-10.88-9.088-10.88-27.264 0-3.84.341-8.832 1.024-14.976-4.437 12.459-9.728 22.784-15.872 30.976-6.144 8.107-11.776 12.16-16.896 12.16-5.12 0-9.472-2.645-13.056-7.936-3.499-5.376-5.248-13.44-5.248-24.192 0-13.739 3.072-26.453 9.216-38.144 2.901-5.632 6.827-10.197 11.776-13.696 4.949-3.584 10.752-5.376 17.408-5.376 6.656 0 12.373 2.859 17.152 8.576.341-3.072.512-7.381.512-12.928Zm-18.048 13.184c-7.509 0-13.483 4.352-17.92 13.056-4.437 8.619-6.656 19.328-6.656 32.128 0 6.4.811 11.648 2.432 15.744 1.621 4.011 4.011 6.016 7.168 6.016s7.04-3.285 11.648-9.856c4.693-6.656 8.96-14.763 12.8-24.32 3.84-9.643 6.187-18.347 7.04-26.112-5.888-4.437-11.392-6.656-16.512-6.656Zm53.675 59.136c0-4.693.768-12.032 2.304-22.016 1.621-9.984 2.432-18.56 2.432-25.728 0-7.168-.896-12.459-2.688-15.872 2.133-1.963 4.693-2.944 7.68-2.944 6.315 0 9.472 3.243 9.472 9.728 0 2.133-1.024 10.325-3.072 24.576-1.963 14.251-2.944 24.747-2.944 31.488s2.048 10.112 6.144 10.112c3.413 0 7.552-4.011 12.416-12.032 4.864-8.021 9.003-17.024 12.416-27.008 3.413-10.069 5.12-17.493 5.12-22.272 0-4.864-.64-8.747-1.92-11.648 2.219-1.963 4.821-2.944 7.808-2.944 6.315 0 9.472 3.243 9.472 9.728 0 4.693-.811 11.904-2.432 21.632-1.621 9.728-2.432 17.365-2.432 22.912 0 12.117 2.005 21.461 6.016 28.032-2.56 3.157-5.461 4.736-8.704 4.736-7.339 0-11.008-9.003-11.008-27.008 0-1.707.512-7.296 1.536-16.768-7.253 17.152-13.312 28.885-18.176 35.2-2.048 2.731-4.352 5.035-6.912 6.912-2.475 1.877-4.907 2.816-7.296 2.816-10.155 0-15.232-7.211-15.232-21.632Zm100.961-1.664c0 8.021 1.621 13.867 4.864 17.536-2.645 3.072-5.589 4.608-8.832 4.608-6.656 0-9.984-5.632-9.984-16.896 0-4.181 1.536-16.64 4.608-37.376 3.072-20.736 4.608-35.627 4.608-44.672 0-9.131-.896-15.488-2.688-19.072 2.048-1.877 4.693-2.816 7.936-2.816 3.328 0 5.717 1.024 7.168 3.072 1.451 2.048 2.176 5.12 2.176 9.216 0 4.011-.427 9.173-1.28 15.488-.853 6.315-2.005 14.037-3.456 23.168-1.365 9.131-2.389 16.512-3.072 22.144 8.192-7.851 15.275-15.445 21.248-22.784 5.973-7.424 9.344-12.715 10.112-15.872 3.499 0 6.272.555 8.32 1.664 2.133 1.109 3.2 2.517 3.2 4.224 0 2.816-9.771 13.312-29.312 31.488 8.277 13.995 14.251 23.211 17.92 27.648 5.12 6.229 10.283 9.728 15.488 10.496-.085 4.181-1.195 7.125-3.328 8.832-2.048 1.621-4.096 2.432-6.144 2.432-5.291 0-11.136-4.949-17.536-14.848a430.376 430.376 0 0 1-9.088-14.976c-3.072-5.291-5.248-9.003-6.528-11.136l-5.76 5.12c-.427 5.376-.64 9.813-.64 13.312Zm92.622 19.328.128 1.664c-2.816 1.024-5.205 1.536-7.168 1.536-3.499 0-5.675-1.835-6.528-5.504-6.997-29.781-12.459-49.109-16.384-57.984-2.901-6.741-5.248-10.923-7.04-12.544-1.707-1.707-3.2-2.56-4.48-2.56.939-2.901 2.432-5.035 4.48-6.4 2.048-1.365 4.053-2.048 6.016-2.048 5.205 0 9.557 4.395 13.056 13.184 1.536 4.096 4.224 14.421 8.064 30.976 3.925 16.469 5.973 26.112 6.144 28.928 8.192-20.907 13.184-36.565 14.976-46.976-2.475-6.229-5.035-10.027-7.68-11.392.939-1.792 2.347-3.285 4.224-4.48 1.963-1.195 3.968-1.792 6.016-1.792 3.925 0 6.699 1.963 8.32 5.888 1.536 4.096 4.139 14.208 7.808 30.336 3.669 16.128 5.589 25.6 5.76 28.416 4.437-10.155 8.192-21.504 11.264-34.048 3.072-12.544 4.608-21.803 4.608-27.776 0-2.475-.512-4.523-1.536-6.144 2.048-3.157 5.12-4.736 9.216-4.736 3.84 0 5.76 2.304 5.76 6.912 0 4.608-2.475 14.72-7.424 30.336-4.864 15.531-10.197 28.928-16 40.192-1.451 2.816-2.176 4.693-2.176 5.632 0 .939.043 1.621.128 2.048-2.987 1.024-5.376 1.536-7.168 1.536-3.499 0-5.717-1.835-6.656-5.504-4.779-19.883-7.936-32.768-9.472-38.656-4.437 13.739-9.131 25.387-14.08 34.944-1.365 2.816-2.091 4.821-2.176 6.016Zm97.337-34.048c-2.304 0-4.608-.128-6.912-.384.085 9.472 1.835 16.683 5.248 21.632 3.499 4.949 8.363 7.424 14.592 7.424 8.789 0 15.189-4.309 19.2-12.928 2.048 1.963 3.072 4.352 3.072 7.168 0 4.779-2.688 8.533-8.064 11.264-5.291 2.645-10.837 3.968-16.64 3.968-10.325 0-18.133-3.285-23.424-9.856-5.205-6.571-7.808-15.061-7.808-25.472 0-6.229.981-12.501 2.944-18.816 1.963-6.4 4.651-12.245 8.064-17.536 3.413-5.376 7.808-9.728 13.184-13.056 5.376-3.328 11.264-4.992 17.664-4.992 6.4 0 11.264 1.621 14.592 4.864 3.413 3.243 5.12 7.424 5.12 12.544 0 8.277-3.84 16.043-11.52 23.296-7.595 7.253-17.365 10.88-29.312 10.88Zm27.392-29.952c0-3.499-1.109-6.357-3.328-8.576-2.133-2.304-5.12-3.456-8.96-3.456-3.755 0-7.04 1.067-9.856 3.2-2.731 2.133-4.907 4.992-6.528 8.576-2.901 6.656-4.693 13.867-5.376 21.632 2.048.256 3.968.384 5.76.384 8.704 0 15.573-2.219 20.608-6.656 5.12-4.523 7.68-9.557 7.68-15.104Z"/>
</svg>
