<svg xmlns="http://www.w3.org/2000/svg" xmlns:xlink="http://www.w3.org/1999/xlink" width="491" zoomAndPan="magnify" viewBox="0 0 368.25 201.000001" height="268" preserveAspectRatio="xMidYMid meet" version="1.0"><defs><g/><clipPath id="e3a7821bf6"><path d="M 0.539062 0 L 366.964844 0 L 366.964844 200.003906 L 0.539062 200.003906 Z M 0.539062 0 " clip-rule="nonzero"/></clipPath><clipPath id="9569969888"><path d="M 288.492188 102.539062 L 292.539062 102.539062 L 292.539062 106.589844 L 288.492188 106.589844 Z M 288.492188 102.539062 " clip-rule="nonzero"/></clipPath><clipPath id="b872be03da"><path d="M 290.515625 102.539062 C 289.398438 102.539062 288.492188 103.445312 288.492188 104.5625 C 288.492188 105.683594 289.398438 106.589844 290.515625 106.589844 C 291.632812 106.589844 292.539062 105.683594 292.539062 104.5625 C 292.539062 103.445312 291.632812 102.539062 290.515625 102.539062 Z M 290.515625 102.539062 " clip-rule="nonzero"/></clipPath><clipPath id="2c99f50348"><path d="M 76.570312 116.152344 L 342.191406 116.152344 L 342.191406 196.542969 L 76.570312 196.542969 Z M 76.570312 116.152344 " clip-rule="nonzero"/></clipPath><clipPath id="d4e4a201c9"><path d="M 77.324219 195.152344 C 101.953125 184.558594 110.609375 177.542969 120.386719 171.496094 C 132.324219 164.035156 147.996094 154.257812 160.609375 147.539062 C 171.207031 141.792969 179.714844 137.019531 190.757812 132.988281 C 203 128.511719 217.550781 124.929688 231.132812 122.464844 C 244.492188 120.003906 258.222656 118.882812 271.433594 117.988281 C 284.121094 117.09375 296.734375 116.867188 308.824219 116.792969 C 320.015625 116.644531 338.824219 115.449219 341.433594 117.167969 C 341.957031 117.539062 342.105469 118.285156 342.03125 118.4375 C 341.882812 118.585938 340.761719 118.210938 340.6875 118.0625 C 340.6875 117.839844 341.660156 117.167969 341.808594 117.316406 C 341.957031 117.390625 342.105469 118.285156 341.660156 118.660156 C 339.570312 120.449219 320.164062 118.136719 308.824219 118.285156 C 296.808594 118.359375 284.195312 118.585938 271.582031 119.480469 C 258.449219 120.375 244.789062 121.421875 231.507812 123.882812 C 218 126.347656 203.597656 129.855469 191.355469 134.332031 C 180.460938 138.363281 171.953125 143.136719 161.355469 148.808594 C 148.820312 155.527344 133.144531 165.300781 121.207031 172.691406 C 111.355469 178.886719 102.546875 185.898438 94.488281 190.003906 C 88.445312 193.066406 80.011719 196.648438 77.847656 196.496094 C 77.324219 196.496094 76.949219 196.273438 76.875 195.976562 C 76.800781 195.75 77.324219 195.152344 77.324219 195.152344 " clip-rule="nonzero"/></clipPath><clipPath id="424faa4c7e"><path d="M 137.179688 2.914062 L 138.621094 2.914062 L 138.621094 4.15625 L 137.179688 4.15625 Z M 137.179688 2.914062 " clip-rule="nonzero"/></clipPath><clipPath id="3cdffbc0bc"><path d="M 138.59375 3.359375 C 137.996094 4.402344 137.398438 4.179688 137.25 3.957031 C 137.101562 3.730469 137.25 3.132812 137.476562 2.984375 C 137.625 2.835938 138.445312 3.058594 138.445312 3.058594 " clip-rule="nonzero"/></clipPath></defs><g clip-path="url(#e3a7821bf6)"><path fill="#ffffff" d="M 0.539062 0 L 366.964844 0 L 366.964844 200.003906 L 0.539062 200.003906 Z M 0.539062 0 " fill-opacity="1" fill-rule="nonzero"/></g><g fill="#000000" fill-opacity="1"><g transform="translate(91.630372, 144.606187)"><g><path d="M 48.75 -3.546875 C 48.976562 -3.398438 49.097656 -3.210938 49.109375 -2.984375 C 49.128906 -2.765625 49.109375 -2.5625 49.046875 -2.375 C 49.046875 -2.34375 49.046875 -2.328125 49.046875 -2.328125 C 48.585938 -0.472656 47.6875 1.015625 46.34375 2.140625 C 45.007812 3.273438 43.285156 3.9375 41.171875 4.125 C 39.140625 4.25 37.457031 3.800781 36.125 2.78125 C 34.789062 1.757812 33.867188 0.253906 33.359375 -1.734375 C 33.128906 -2.710938 33.007812 -3.703125 33 -4.703125 C 33 -5.710938 33.035156 -6.722656 33.109375 -7.734375 C 33.171875 -8.359375 33.222656 -9 33.265625 -9.65625 C 33.367188 -10.695312 33.441406 -11.753906 33.484375 -12.828125 C 33.523438 -14.503906 33.171875 -15.601562 32.421875 -16.125 C 31.671875 -16.65625 30.703125 -16.84375 29.515625 -16.6875 C 28.328125 -16.539062 27.144531 -16.285156 25.96875 -15.921875 C 25.289062 -15.742188 24.664062 -15.597656 24.09375 -15.484375 C 23.863281 -15.453125 23.695312 -15.359375 23.59375 -15.203125 C 23.488281 -15.054688 23.390625 -14.894531 23.296875 -14.71875 C 22.867188 -13.539062 22.457031 -12.347656 22.0625 -11.140625 C 18.320312 -0.140625 14.097656 10.671875 9.390625 21.296875 C 8.660156 22.921875 7.894531 24.53125 7.09375 26.125 C 6.925781 26.507812 6.71875 26.859375 6.46875 27.171875 C 6.226562 27.492188 5.910156 27.75 5.515625 27.9375 C 4.785156 28.28125 4.171875 28.328125 3.671875 28.078125 C 3.179688 27.835938 2.890625 27.3125 2.796875 26.5 C 2.679688 25.5625 2.671875 24.597656 2.765625 23.609375 C 3.203125 17.679688 4.171875 12.5 5.671875 8.0625 C 7.171875 3.632812 9.1875 -0.46875 11.71875 -4.25 C 14.25 -8.039062 17.242188 -11.941406 20.703125 -15.953125 C 21.253906 -16.554688 21.660156 -17.257812 21.921875 -18.0625 C 22.273438 -19.15625 22.640625 -20.253906 23.015625 -21.359375 C 24.359375 -25.441406 25.671875 -29.53125 26.953125 -33.625 C 28.242188 -37.71875 29.414062 -41.835938 30.46875 -45.984375 C 31.507812 -50.128906 31.898438 -53.164062 31.640625 -55.09375 C 31.390625 -57.019531 30.34375 -57.882812 28.5 -57.6875 C 26.65625 -57.5 23.894531 -56.304688 20.21875 -54.109375 C 16.625 -51.941406 13.132812 -49.609375 9.75 -47.109375 C 6.375 -44.617188 3.078125 -42.003906 -0.140625 -39.265625 C -1.347656 -38.265625 -2.828125 -36.957031 -4.578125 -35.34375 C -6.328125 -33.726562 -8.035156 -32.019531 -9.703125 -30.21875 C -11.378906 -28.425781 -12.722656 -26.710938 -13.734375 -25.078125 C -14.472656 -23.847656 -14.582031 -23.070312 -14.0625 -22.75 C -13.539062 -22.4375 -12.59375 -22.363281 -11.21875 -22.53125 C -10.550781 -22.613281 -9.425781 -22.785156 -7.84375 -23.046875 C -6.269531 -23.316406 -4.519531 -23.6875 -2.59375 -24.15625 C -1.507812 -24.414062 -0.460938 -24.675781 0.546875 -24.9375 C 2.085938 -25.332031 3.414062 -25.644531 4.53125 -25.875 C 5.644531 -26.101562 6.320312 -26.144531 6.5625 -26 C 6.65625 -25.8125 5.910156 -25.460938 4.328125 -24.953125 C 2.753906 -24.453125 0.800781 -23.910156 -1.53125 -23.328125 C -3.875 -22.742188 -6.15625 -22.25 -8.375 -21.84375 C -10.59375 -21.4375 -12.296875 -21.25 -13.484375 -21.28125 C -15.535156 -21.375 -16.566406 -22 -16.578125 -23.15625 C -16.585938 -24.3125 -15.84375 -25.828125 -14.34375 -27.703125 C -12.851562 -29.585938 -10.898438 -31.648438 -8.484375 -33.890625 C -6.078125 -36.128906 -3.46875 -38.394531 -0.65625 -40.6875 C 2.144531 -42.976562 4.875 -45.125 7.53125 -47.125 C 10.1875 -49.132812 12.484375 -50.816406 14.421875 -52.171875 C 16.359375 -53.523438 17.671875 -54.410156 18.359375 -54.828125 C 21.171875 -56.535156 23.6875 -57.789062 25.90625 -58.59375 C 28.125 -59.40625 29.9375 -59.582031 31.34375 -59.125 C 32.75 -58.675781 33.617188 -57.4375 33.953125 -55.40625 C 34.296875 -53.382812 34 -50.394531 33.0625 -46.4375 C 32.289062 -43.3125 31.4375 -40.191406 30.5 -37.078125 C 29.5625 -33.972656 28.601562 -30.875 27.625 -27.78125 C 27.238281 -26.601562 26.847656 -25.390625 26.453125 -24.140625 C 26.242188 -23.453125 26.003906 -22.71875 25.734375 -21.9375 C 26.148438 -22.101562 26.472656 -22.289062 26.703125 -22.5 C 26.941406 -22.71875 27.15625 -22.929688 27.34375 -23.140625 C 27.414062 -23.234375 27.507812 -23.328125 27.625 -23.421875 C 32.101562 -27.941406 37.035156 -32.566406 42.421875 -37.296875 C 47.804688 -42.023438 53.539062 -46.554688 59.625 -50.890625 C 65.707031 -55.222656 72.03125 -59.023438 78.59375 -62.296875 C 85.164062 -65.578125 91.851562 -68.03125 98.65625 -69.65625 C 105.457031 -71.28125 112.28125 -71.765625 119.125 -71.109375 C 119.195312 -71.097656 119.273438 -71.046875 119.359375 -70.953125 C 119.453125 -70.867188 119.507812 -70.773438 119.53125 -70.671875 C 119.550781 -70.515625 119.515625 -70.382812 119.421875 -70.28125 C 119.328125 -70.1875 119.1875 -70.125 119 -70.09375 C 118.894531 -70.039062 118.757812 -70.023438 118.59375 -70.046875 C 112.882812 -70.585938 107.125 -70.21875 101.3125 -68.9375 C 95.507812 -67.65625 89.726562 -65.703125 83.96875 -63.078125 C 78.207031 -60.453125 72.578125 -57.363281 67.078125 -53.8125 C 61.585938 -50.269531 56.328125 -46.488281 51.296875 -42.46875 C 46.265625 -38.457031 41.578125 -34.421875 37.234375 -30.359375 C 32.898438 -26.296875 29.003906 -22.441406 25.546875 -18.796875 C 25.523438 -18.765625 25.515625 -18.75 25.515625 -18.75 C 25.222656 -18.5 24.960938 -18.222656 24.734375 -17.921875 C 24.503906 -17.628906 24.414062 -17.394531 24.46875 -17.21875 C 24.519531 -17.039062 24.847656 -17.015625 25.453125 -17.140625 C 25.628906 -17.171875 25.800781 -17.195312 25.96875 -17.21875 C 27.082031 -17.507812 28.253906 -17.734375 29.484375 -17.890625 C 30.710938 -18.046875 31.867188 -18.019531 32.953125 -17.8125 C 34.515625 -17.445312 35.425781 -16.476562 35.6875 -14.90625 C 35.78125 -14.164062 35.800781 -13.429688 35.75 -12.703125 C 35.695312 -11.484375 35.628906 -10.269531 35.546875 -9.0625 C 35.460938 -7.75 35.382812 -6.429688 35.3125 -5.109375 C 35.238281 -3.523438 35.539062 -2.007812 36.21875 -0.5625 C 36.863281 0.6875 37.695312 1.597656 38.71875 2.171875 C 39.738281 2.742188 40.835938 2.953125 42.015625 2.796875 C 43.203125 2.640625 44.3125 2.085938 45.34375 1.140625 C 46.113281 0.421875 46.6875 -0.429688 47.0625 -1.421875 C 47.132812 -1.648438 47.207031 -1.875 47.28125 -2.09375 C 47.320312 -2.289062 47.378906 -2.492188 47.453125 -2.703125 C 47.609375 -3.066406 47.804688 -3.320312 48.046875 -3.46875 C 48.296875 -3.625 48.53125 -3.648438 48.75 -3.546875 Z M 19.03125 -9.640625 C 19.039062 -9.691406 19.070312 -9.757812 19.125 -9.84375 C 19.1875 -10.019531 19.269531 -10.25 19.375 -10.53125 C 19.476562 -10.820312 19.546875 -11.082031 19.578125 -11.3125 C 19.609375 -11.550781 19.585938 -11.691406 19.515625 -11.734375 C 19.453125 -11.773438 19.285156 -11.644531 19.015625 -11.34375 C 14.503906 -6.457031 11.1875 -1.25 9.0625 4.28125 C 6.9375 9.8125 5.671875 15.96875 5.265625 22.75 C 5.222656 23.34375 5.257812 23.664062 5.375 23.71875 C 5.488281 23.769531 5.640625 23.65625 5.828125 23.375 C 6.023438 23.101562 6.207031 22.789062 6.375 22.4375 C 6.539062 22.082031 6.660156 21.832031 6.734375 21.6875 C 8.992188 16.53125 11.148438 11.347656 13.203125 6.140625 C 15.265625 0.941406 17.207031 -4.316406 19.03125 -9.640625 Z M 19.03125 -9.640625 "/></g></g><g transform="translate(134.136434, 137.702194)"><g><path d="M 2.09375 -4.546875 L 2.046875 -4.53125 C 0.359375 -4.289062 -0.804688 -4.484375 -1.453125 -5.109375 C -2.097656 -5.742188 -2.234375 -6.703125 -1.859375 -7.984375 C -1.515625 -8.972656 -1.03125 -9.863281 -0.40625 -10.65625 C -0.175781 -10.9375 0.0507812 -11.171875 0.28125 -11.359375 C 0.519531 -11.546875 0.8125 -11.664062 1.15625 -11.71875 C 1.34375 -11.78125 1.566406 -11.78125 1.828125 -11.71875 C 1.921875 -11.707031 2.007812 -11.6875 2.09375 -11.65625 C 2.28125 -11.726562 2.457031 -11.828125 2.625 -11.953125 C 2.664062 -11.992188 2.722656 -12.03125 2.796875 -12.0625 C 3.160156 -12.269531 3.554688 -12.398438 3.984375 -12.453125 C 4.148438 -12.472656 4.328125 -12.5 4.515625 -12.53125 C 5.210938 -12.539062 5.769531 -12.34375 6.1875 -11.9375 C 6.613281 -11.53125 6.828125 -10.976562 6.828125 -10.28125 C 6.835938 -9.875 6.773438 -9.472656 6.640625 -9.078125 C 5.703125 -6.492188 4.222656 -4.988281 2.203125 -4.5625 Z M 3.796875 -11.15625 C 2.890625 -11.050781 2.125 -10.660156 1.5 -9.984375 C 0.882812 -9.316406 0.460938 -8.59375 0.234375 -7.8125 C 0.015625 -7.03125 0.0195312 -6.414062 0.25 -5.96875 C 0.476562 -5.53125 0.976562 -5.472656 1.75 -5.796875 C 2.625 -6.234375 3.34375 -6.882812 3.90625 -7.75 C 4.476562 -8.625 4.785156 -9.414062 4.828125 -10.125 C 4.878906 -10.832031 4.535156 -11.175781 3.796875 -11.15625 Z M 3.796875 -11.15625 "/></g></g><g transform="translate(143.30407, 136.213152)"><g><path d="M 16.640625 -11.59375 C 16.992188 -11.90625 17.296875 -12.015625 17.546875 -11.921875 C 17.804688 -11.835938 17.78125 -11.46875 17.46875 -10.8125 C 17.082031 -10.050781 16.296875 -9.175781 15.109375 -8.1875 C 13.921875 -7.207031 12.820312 -6.6875 11.8125 -6.625 C 10.800781 -6.5625 10.390625 -7.253906 10.578125 -8.703125 C 10.773438 -10.148438 10.878906 -10.957031 10.890625 -11.125 C 10.898438 -11.300781 10.851562 -11.390625 10.75 -11.390625 C 10.644531 -11.398438 10.429688 -11.25 10.109375 -10.9375 C 9.203125 -10.050781 8.3125 -9.140625 7.4375 -8.203125 C 7.0625 -7.816406 6.695312 -7.410156 6.34375 -6.984375 C 6.125 -6.710938 5.898438 -6.4375 5.671875 -6.15625 C 5.671875 -6.15625 5.660156 -6.144531 5.640625 -6.125 C 5.390625 -5.78125 5.054688 -5.519531 4.640625 -5.34375 C 4.441406 -5.25 4.234375 -5.191406 4.015625 -5.171875 C 3.796875 -5.160156 3.597656 -5.210938 3.421875 -5.328125 C 3.222656 -5.484375 3.128906 -5.65625 3.140625 -5.84375 C 3.160156 -6.039062 3.257812 -6.347656 3.4375 -6.765625 C 3.613281 -7.191406 3.8125 -7.65625 4.03125 -8.15625 C 4.25 -8.65625 4.367188 -8.960938 4.390625 -9.078125 C 4.410156 -9.191406 4.375 -9.296875 4.28125 -9.390625 C 4.175781 -9.484375 4.082031 -9.5 4 -9.4375 C 3.914062 -9.382812 3.59375 -9.078125 3.03125 -8.515625 C 2.46875 -7.953125 1.710938 -7.175781 0.765625 -6.1875 C 0.316406 -5.726562 -0.113281 -5.253906 -0.53125 -4.765625 C -0.644531 -4.609375 -0.769531 -4.46875 -0.90625 -4.34375 C -1.207031 -3.988281 -1.570312 -3.769531 -2 -3.6875 C -2.300781 -3.613281 -2.539062 -3.640625 -2.71875 -3.765625 C -2.894531 -3.898438 -2.957031 -4.117188 -2.90625 -4.421875 C -2.863281 -4.640625 -2.800781 -4.847656 -2.71875 -5.046875 C -2.6875 -5.128906 -2.664062 -5.210938 -2.65625 -5.296875 C -2.050781 -7.285156 -1.453125 -9.28125 -0.859375 -11.28125 C -0.835938 -11.332031 -0.828125 -11.398438 -0.828125 -11.484375 C -0.753906 -11.679688 -0.675781 -11.882812 -0.59375 -12.09375 C -0.363281 -12.4375 -0.0507812 -12.585938 0.34375 -12.546875 C 0.800781 -12.492188 1.003906 -12.265625 0.953125 -11.859375 C 0.835938 -11.253906 0.726562 -10.65625 0.625 -10.0625 C 0.5625 -9.789062 0.5 -9.519531 0.4375 -9.25 C 0.34375 -8.769531 0.335938 -8.472656 0.421875 -8.359375 C 0.503906 -8.242188 0.773438 -8.378906 1.234375 -8.765625 C 1.546875 -9.046875 1.847656 -9.332031 2.140625 -9.625 C 2.492188 -9.957031 2.84375 -10.273438 3.1875 -10.578125 C 3.71875 -11.023438 4.269531 -11.421875 4.84375 -11.765625 C 5.125 -11.941406 5.414062 -12.085938 5.71875 -12.203125 C 6.019531 -12.328125 6.328125 -12.304688 6.640625 -12.140625 C 6.878906 -11.992188 7.003906 -11.8125 7.015625 -11.59375 C 7.023438 -11.375 7 -11.15625 6.9375 -10.9375 C 6.832031 -10.53125 6.800781 -10.28125 6.84375 -10.1875 C 6.894531 -10.09375 6.988281 -10.085938 7.125 -10.171875 C 7.269531 -10.253906 7.515625 -10.441406 7.859375 -10.734375 C 8.203125 -11.023438 8.5625 -11.347656 8.9375 -11.703125 C 9.4375 -12.140625 9.96875 -12.570312 10.53125 -13 C 10.976562 -13.414062 11.484375 -13.703125 12.046875 -13.859375 C 12.828125 -14.046875 13.203125 -13.78125 13.171875 -13.0625 C 13.148438 -12.351562 13.007812 -11.484375 12.75 -10.453125 C 12.488281 -9.421875 12.539062 -8.820312 12.90625 -8.65625 C 13.269531 -8.488281 13.945312 -8.898438 14.9375 -9.890625 C 15.9375 -10.890625 16.503906 -11.457031 16.640625 -11.59375 Z M 16.640625 -11.59375 "/></g></g><g transform="translate(161.570282, 133.246286)"><g><path d="M 2.09375 -4.546875 L 2.046875 -4.53125 C 0.359375 -4.289062 -0.804688 -4.484375 -1.453125 -5.109375 C -2.097656 -5.742188 -2.234375 -6.703125 -1.859375 -7.984375 C -1.515625 -8.972656 -1.03125 -9.863281 -0.40625 -10.65625 C -0.175781 -10.9375 0.0507812 -11.171875 0.28125 -11.359375 C 0.519531 -11.546875 0.8125 -11.664062 1.15625 -11.71875 C 1.34375 -11.78125 1.566406 -11.78125 1.828125 -11.71875 C 1.921875 -11.707031 2.007812 -11.6875 2.09375 -11.65625 C 2.28125 -11.726562 2.457031 -11.828125 2.625 -11.953125 C 2.664062 -11.992188 2.722656 -12.03125 2.796875 -12.0625 C 3.160156 -12.269531 3.554688 -12.398438 3.984375 -12.453125 C 4.148438 -12.472656 4.328125 -12.5 4.515625 -12.53125 C 5.210938 -12.539062 5.769531 -12.34375 6.1875 -11.9375 C 6.613281 -11.53125 6.828125 -10.976562 6.828125 -10.28125 C 6.835938 -9.875 6.773438 -9.472656 6.640625 -9.078125 C 5.703125 -6.492188 4.222656 -4.988281 2.203125 -4.5625 Z M 3.796875 -11.15625 C 2.890625 -11.050781 2.125 -10.660156 1.5 -9.984375 C 0.882812 -9.316406 0.460938 -8.59375 0.234375 -7.8125 C 0.015625 -7.03125 0.0195312 -6.414062 0.25 -5.96875 C 0.476562 -5.53125 0.976562 -5.472656 1.75 -5.796875 C 2.625 -6.234375 3.34375 -6.882812 3.90625 -7.75 C 4.476562 -8.625 4.785156 -9.414062 4.828125 -10.125 C 4.878906 -10.832031 4.535156 -11.175781 3.796875 -11.15625 Z M 3.796875 -11.15625 "/></g></g><g transform="translate(170.737917, 131.757244)"><g><path d="M 6.9375 -10.125 C 5.226562 -9.15625 4.003906 -8.382812 3.265625 -7.8125 C 2.734375 -7.425781 2.4375 -7.128906 2.375 -6.921875 C 2.320312 -6.722656 2.445312 -6.394531 2.75 -5.9375 C 2.75 -5.914062 2.769531 -5.878906 2.8125 -5.828125 C 3.164062 -5.253906 3.414062 -4.644531 3.5625 -4 C 3.851562 -2.6875 2.878906 -1.570312 0.640625 -0.65625 C -1.597656 0.25 -3.15625 0.515625 -4.03125 0.140625 C -4.90625 -0.234375 -5.25 -0.820312 -5.0625 -1.625 C -4.875 -2.425781 -4.207031 -3.320312 -3.0625 -4.3125 C -1.914062 -5.3125 -1.15625 -6.015625 -0.78125 -6.421875 C -0.40625 -6.835938 -0.332031 -7.25 -0.5625 -7.65625 C -0.644531 -7.789062 -0.734375 -7.925781 -0.828125 -8.0625 C -1.035156 -8.40625 -1.253906 -8.75 -1.484375 -9.09375 C -1.890625 -9.726562 -2.125 -10.382812 -2.1875 -11.0625 C -2.257812 -11.75 -2.101562 -12.359375 -1.71875 -12.890625 C -1.34375 -13.421875 -0.679688 -13.78125 0.265625 -13.96875 C 0.804688 -14.070312 1.300781 -14.070312 1.75 -13.96875 C 2.207031 -13.875 2.597656 -13.625 2.921875 -13.21875 C 3.179688 -12.945312 3.164062 -12.648438 2.875 -12.328125 C 2.675781 -12.128906 2.441406 -12.070312 2.171875 -12.15625 C 1.992188 -12.1875 1.820312 -12.257812 1.65625 -12.375 C 1.65625 -12.40625 1.65625 -12.421875 1.65625 -12.421875 C 1.570312 -12.460938 1.492188 -12.5 1.421875 -12.53125 C 1.347656 -12.625 1.265625 -12.695312 1.171875 -12.75 C 0.847656 -12.90625 0.535156 -12.914062 0.234375 -12.78125 C -0.0664062 -12.65625 -0.253906 -12.382812 -0.328125 -11.96875 C -0.378906 -11.664062 -0.378906 -11.359375 -0.328125 -11.046875 C -0.242188 -10.660156 -0.0976562 -10.300781 0.109375 -9.96875 C 0.242188 -9.769531 0.363281 -9.582031 0.46875 -9.40625 C 0.75 -8.9375 0.96875 -8.613281 1.125 -8.4375 C 1.28125 -8.269531 1.441406 -8.210938 1.609375 -8.265625 C 1.785156 -8.328125 3.328125 -9.179688 6.234375 -10.828125 C 6.867188 -11.160156 7.101562 -10.925781 6.9375 -10.125 Z M 0.53125 -2.296875 C 1.28125 -2.710938 1.53125 -3.3125 1.28125 -4.09375 C 1.269531 -4.15625 1.25 -4.21875 1.21875 -4.28125 C 1.09375 -4.707031 0.945312 -5.023438 0.78125 -5.234375 C 0.613281 -5.453125 0.304688 -5.394531 -0.140625 -5.0625 C -1.234375 -4.1875 -2.210938 -3.210938 -3.078125 -2.140625 C -3.128906 -2.046875 -3.179688 -1.957031 -3.234375 -1.875 C -3.234375 -1.875 -3.242188 -1.859375 -3.265625 -1.828125 C -3.304688 -1.722656 -3.296875 -1.613281 -3.234375 -1.5 C -3.179688 -1.394531 -3.070312 -1.359375 -2.90625 -1.390625 C -1.6875 -1.398438 -0.539062 -1.703125 0.53125 -2.296875 Z M 0.53125 -2.296875 "/></g></g><g transform="translate(178.386246, 130.514974)"><g><path d="M -0.0625 -3.109375 C -1.15625 -2.929688 -1.796875 -3.414062 -1.984375 -4.5625 C -2.203125 -5.945312 -1.695312 -8.554688 -0.46875 -12.390625 C -0.425781 -12.554688 -0.316406 -12.65625 -0.140625 -12.6875 C 0.597656 -12.800781 1.015625 -12.566406 1.109375 -11.984375 C 1.148438 -11.785156 1.125 -11.519531 1.03125 -11.1875 C 1.007812 -11.101562 0.65625 -9.488281 -0.03125 -6.34375 C -0.144531 -5.820312 -0.179688 -5.445312 -0.140625 -5.21875 C -0.0976562 -4.96875 0.0351562 -4.863281 0.265625 -4.90625 C 1.109375 -5.039062 2.976562 -7.488281 5.875 -12.25 C 6.238281 -12.882812 6.640625 -13.238281 7.078125 -13.3125 C 7.742188 -13.414062 8.113281 -13.226562 8.1875 -12.75 C 8.21875 -12.5625 8.128906 -11.832031 7.921875 -10.5625 C 7.640625 -8.820312 7.519531 -7.828125 7.5625 -7.578125 C 7.625 -7.191406 7.78125 -7.019531 8.03125 -7.0625 C 8.675781 -7.164062 10.34375 -8.59375 13.03125 -11.34375 C 13.175781 -11.519531 13.304688 -11.617188 13.421875 -11.640625 C 13.710938 -11.691406 13.898438 -11.476562 13.984375 -11 C 14.003906 -10.875 13.984375 -10.765625 13.921875 -10.671875 C 12.523438 -9.003906 11.316406 -7.71875 10.296875 -6.8125 C 9.359375 -5.976562 8.488281 -5.5 7.6875 -5.375 L 7.4375 -5.328125 C 6.21875 -5.378906 5.476562 -6.207031 5.21875 -7.8125 C 4.132812 -6.488281 3.226562 -5.414062 2.5 -4.59375 C 1.769531 -3.769531 0.914062 -3.273438 -0.0625 -3.109375 Z M -0.0625 -3.109375 "/></g></g><g transform="translate(192.577954, 128.209904)"><g><path d="M 89.046875 -60.84375 C 88.765625 -60.71875 88.492188 -60.679688 88.234375 -60.734375 C 87.984375 -60.785156 87.738281 -60.851562 87.5 -60.9375 C 87.394531 -60.976562 87.304688 -61.023438 87.234375 -61.078125 C 84.023438 -62.179688 80.710938 -62.863281 77.296875 -63.125 C 68.398438 -63.78125 59.8125 -61.515625 51.53125 -56.328125 C 48.507812 -54.421875 45.664062 -52.257812 43 -49.84375 C 40.34375 -47.4375 37.785156 -44.867188 35.328125 -42.140625 C 31.359375 -37.703125 27.8125 -32.972656 24.6875 -27.953125 C 21.5625 -22.929688 18.789062 -17.664062 16.375 -12.15625 C 15.476562 -10.195312 14.640625 -8.222656 13.859375 -6.234375 C 13.847656 -6.160156 13.828125 -6.101562 13.796875 -6.0625 C 13.179688 -4.632812 12.726562 -3.148438 12.4375 -1.609375 C 12.289062 -0.890625 12.070312 -0.195312 11.78125 0.46875 C 11.457031 1.363281 10.878906 1.769531 10.046875 1.6875 C 9.566406 1.65625 9.328125 1.394531 9.328125 0.90625 C 9.304688 0.539062 9.359375 0.1875 9.484375 -0.15625 C 10.066406 -2 10.546875 -3.847656 10.921875 -5.703125 C 11.304688 -7.554688 11.644531 -9.410156 11.9375 -11.265625 C 12.019531 -11.765625 12.101562 -12.234375 12.1875 -12.671875 C 14 -23.390625 15.550781 -34.140625 16.84375 -44.921875 C 16.863281 -45.140625 16.867188 -45.367188 16.859375 -45.609375 C 16.835938 -45.710938 16.828125 -45.832031 16.828125 -45.96875 C 16.554688 -45.90625 16.359375 -45.78125 16.234375 -45.59375 C 16.109375 -45.40625 16.015625 -45.203125 15.953125 -44.984375 C 15.941406 -44.898438 15.910156 -44.828125 15.859375 -44.765625 C 15.722656 -44.472656 15.601562 -44.171875 15.5 -43.859375 C 14.25 -40.972656 13.007812 -38.0625 11.78125 -35.125 C 9.863281 -30.4375 7.941406 -25.757812 6.015625 -21.09375 C 3.242188 -14.320312 0.453125 -7.535156 -2.359375 -0.734375 C -2.984375 0.773438 -3.660156 2.25 -4.390625 3.6875 C -4.566406 4.0625 -4.722656 4.414062 -4.859375 4.75 C -5.128906 5.394531 -5.566406 5.828125 -6.171875 6.046875 C -6.359375 6.097656 -6.53125 6.113281 -6.6875 6.09375 C -6.84375 6.082031 -6.953125 6.007812 -7.015625 5.875 C -7.085938 5.78125 -7.109375 5.660156 -7.078125 5.515625 C -7.054688 5.367188 -7.019531 5.238281 -6.96875 5.125 C -0.257812 -11.269531 6.460938 -27.660156 13.203125 -44.046875 C 13.828125 -45.503906 14.503906 -46.941406 15.234375 -48.359375 C 15.398438 -48.671875 15.550781 -48.976562 15.6875 -49.28125 C 16.070312 -50.15625 16.679688 -50.773438 17.515625 -51.140625 C 18.023438 -51.328125 18.453125 -51.316406 18.796875 -51.109375 C 19.140625 -50.910156 19.347656 -50.53125 19.421875 -49.96875 C 19.546875 -48.300781 19.484375 -46.617188 19.234375 -44.921875 C 18.128906 -35.847656 16.835938 -26.800781 15.359375 -17.78125 C 15.359375 -17.675781 15.34375 -17.578125 15.3125 -17.484375 C 15.238281 -17.210938 15.203125 -16.945312 15.203125 -16.6875 C 15.210938 -16.425781 15.316406 -16.15625 15.515625 -15.875 C 15.671875 -16.1875 15.832031 -16.488281 16 -16.78125 C 16.34375 -17.375 16.664062 -17.96875 16.96875 -18.5625 C 20.4375 -25.6875 24.632812 -32.316406 29.5625 -38.453125 C 32.394531 -41.960938 35.382812 -45.265625 38.53125 -48.359375 C 41.6875 -51.453125 45.082031 -54.222656 48.71875 -56.671875 C 56.226562 -61.617188 64.144531 -64.285156 72.46875 -64.671875 C 77.75 -64.890625 82.804688 -64.175781 87.640625 -62.53125 C 87.753906 -62.507812 87.882812 -62.476562 88.03125 -62.4375 C 88.257812 -62.375 88.484375 -62.289062 88.703125 -62.1875 C 88.929688 -62.09375 89.128906 -61.929688 89.296875 -61.703125 C 89.335938 -61.648438 89.363281 -61.582031 89.375 -61.5 C 89.382812 -61.414062 89.382812 -61.332031 89.375 -61.25 C 89.34375 -61.164062 89.300781 -61.082031 89.25 -61 C 89.195312 -60.925781 89.128906 -60.875 89.046875 -60.84375 Z M 89.046875 -60.84375 "/></g></g><g transform="translate(217.611987, 124.143783)"><g><path d="M 8.765625 -8.234375 C 8.203125 -7.460938 7.515625 -6.769531 6.703125 -6.15625 C 5.898438 -5.539062 5.207031 -5.113281 4.625 -4.875 C 4.039062 -4.644531 3.441406 -4.46875 2.828125 -4.34375 C 1.804688 -4.132812 0.84375 -4.117188 -0.0625 -4.296875 C -1.53125 -4.640625 -2.179688 -5.640625 -2.015625 -7.296875 C -1.835938 -8.734375 -1.195312 -9.9375 -0.09375 -10.90625 C 1.007812 -11.875 2.222656 -12.453125 3.546875 -12.640625 C 3.546875 -12.640625 3.554688 -12.640625 3.578125 -12.640625 C 3.910156 -12.722656 4.234375 -12.753906 4.546875 -12.734375 C 5.078125 -12.628906 5.445312 -12.378906 5.65625 -11.984375 C 5.863281 -11.585938 5.84375 -11.113281 5.59375 -10.5625 C 5.050781 -9.34375 4.160156 -8.5625 2.921875 -8.21875 C 2.085938 -8 1.265625 -7.910156 0.453125 -7.953125 C 0.296875 -7.941406 0.164062 -7.875 0.0625 -7.75 C -0.03125 -7.632812 -0.078125 -7.5 -0.078125 -7.34375 C -0.148438 -6.3125 0.253906 -5.726562 1.140625 -5.59375 C 2.242188 -5.40625 3.320312 -5.578125 4.375 -6.109375 C 5.601562 -6.734375 6.707031 -7.695312 7.6875 -9 C 8.664062 -10.300781 9.253906 -10.925781 9.453125 -10.875 C 9.648438 -10.820312 9.738281 -10.617188 9.71875 -10.265625 C 9.644531 -9.679688 9.328125 -9.003906 8.765625 -8.234375 Z M 0.953125 -9.8125 C 0.898438 -9.71875 0.867188 -9.617188 0.859375 -9.515625 C 0.847656 -9.410156 0.898438 -9.328125 1.015625 -9.265625 C 1.441406 -9.109375 1.882812 -9.097656 2.34375 -9.234375 C 2.8125 -9.367188 3.1875 -9.613281 3.46875 -9.96875 C 3.75 -10.320312 3.832031 -10.703125 3.71875 -11.109375 C 3.664062 -11.242188 3.570312 -11.320312 3.4375 -11.34375 C 3.300781 -11.363281 3.171875 -11.359375 3.046875 -11.328125 C 2.222656 -11.035156 1.523438 -10.53125 0.953125 -9.8125 Z M 0.953125 -9.8125 "/></g></g><g transform="translate(227.66013, 122.511726)"><g><path d="M 9.4375 -10.09375 C 8.195312 -8.019531 6.90625 -6.429688 5.5625 -5.328125 C 4.226562 -4.222656 2.691406 -3.679688 0.953125 -3.703125 C -0.785156 -3.722656 -1.664062 -4.738281 -1.6875 -6.75 C -1.644531 -7.78125 -1.515625 -8.800781 -1.296875 -9.8125 C -0.773438 -12.144531 -0.234375 -14.472656 0.328125 -16.796875 C 0.492188 -17.628906 0.679688 -18.46875 0.890625 -19.3125 C 0.941406 -19.5 0.988281 -19.6875 1.03125 -19.875 C 1.101562 -20.1875 1.175781 -20.5 1.25 -20.8125 C 1.351562 -21.351562 1.113281 -21.585938 0.53125 -21.515625 C 0.195312 -21.460938 -0.128906 -21.40625 -0.453125 -21.34375 C -0.597656 -21.320312 -0.765625 -21.296875 -0.953125 -21.265625 C -1.128906 -21.222656 -1.304688 -21.175781 -1.484375 -21.125 C -1.773438 -21.050781 -2.066406 -20.988281 -2.359375 -20.9375 C -2.648438 -20.894531 -2.9375 -20.921875 -3.21875 -21.015625 C -3.289062 -21.035156 -3.351562 -21.070312 -3.40625 -21.125 C -3.457031 -21.1875 -3.488281 -21.257812 -3.5 -21.34375 C -3.488281 -21.382812 -3.460938 -21.441406 -3.421875 -21.515625 C -3.378906 -21.597656 -3.316406 -21.65625 -3.234375 -21.6875 C -3.003906 -21.832031 -2.753906 -21.945312 -2.484375 -22.03125 C -1.773438 -22.1875 -1.070312 -22.332031 -0.375 -22.46875 C -0.09375 -22.519531 0.148438 -22.5625 0.359375 -22.59375 C 0.816406 -22.664062 1.15625 -22.734375 1.375 -22.796875 C 1.601562 -22.867188 1.765625 -23.019531 1.859375 -23.25 C 1.953125 -23.476562 2.0625 -23.816406 2.1875 -24.265625 C 2.25 -24.523438 2.335938 -24.804688 2.453125 -25.109375 C 2.691406 -25.972656 2.9375 -26.859375 3.1875 -27.765625 C 3.289062 -28.171875 3.410156 -28.570312 3.546875 -28.96875 C 3.628906 -29.332031 3.820312 -29.640625 4.125 -29.890625 C 4.40625 -30.097656 4.671875 -30.128906 4.921875 -29.984375 C 5.003906 -29.953125 5.070312 -29.882812 5.125 -29.78125 C 5.1875 -29.6875 5.226562 -29.609375 5.25 -29.546875 C 5.320312 -29.085938 5.269531 -28.617188 5.09375 -28.140625 C 5.070312 -28.035156 5.039062 -27.914062 5 -27.78125 C 4.914062 -27.34375 4.828125 -26.894531 4.734375 -26.4375 C 4.515625 -25.601562 4.320312 -24.753906 4.15625 -23.890625 C 4.101562 -23.722656 4.125 -23.585938 4.21875 -23.484375 C 4.3125 -23.390625 4.4375 -23.351562 4.59375 -23.375 C 5.40625 -23.5 6.203125 -23.625 6.984375 -23.75 C 7.390625 -23.8125 7.796875 -23.875 8.203125 -23.9375 C 9.484375 -24.113281 10.019531 -24.015625 9.8125 -23.640625 C 9.664062 -23.410156 9.492188 -23.265625 9.296875 -23.203125 C 9.109375 -23.140625 8.90625 -23.113281 8.6875 -23.125 C 8.5625 -23.101562 8.429688 -23.082031 8.296875 -23.0625 C 7.023438 -22.769531 5.757812 -22.503906 4.5 -22.265625 C 3.914062 -22.171875 3.566406 -21.847656 3.453125 -21.296875 C 3.335938 -20.765625 3.21875 -20.222656 3.09375 -19.671875 C 2.90625 -18.960938 2.742188 -18.269531 2.609375 -17.59375 C 2.441406 -16.957031 2.285156 -16.304688 2.140625 -15.640625 C 1.734375 -13.992188 1.347656 -12.347656 0.984375 -10.703125 C 0.765625 -9.640625 0.632812 -8.554688 0.59375 -7.453125 C 0.414062 -5.453125 1.285156 -4.835938 3.203125 -5.609375 C 5.046875 -6.378906 6.84375 -8.097656 8.59375 -10.765625 C 9.40625 -11.503906 9.6875 -11.28125 9.4375 -10.09375 Z M 9.4375 -10.09375 "/></g></g><g transform="translate(237.466566, 120.918929)"><g><path d="M 13.296875 -17.5 C 13.421875 -17.519531 13.546875 -17.484375 13.671875 -17.390625 C 13.804688 -17.296875 13.859375 -17.179688 13.828125 -17.046875 C 13.785156 -16.835938 13.726562 -16.628906 13.65625 -16.421875 C 12.46875 -13.359375 10.992188 -10.421875 9.234375 -7.609375 C 8.785156 -6.890625 8.28125 -6.195312 7.71875 -5.53125 C 7.445312 -5.195312 7.125 -4.921875 6.75 -4.703125 C 6.0625 -4.273438 5.492188 -4.179688 5.046875 -4.421875 C 4.597656 -4.671875 4.328125 -5.191406 4.234375 -5.984375 C 4.265625 -6.109375 4.28125 -6.234375 4.28125 -6.359375 C 4.269531 -6.546875 4.25 -6.75 4.21875 -6.96875 C 4.195312 -7.1875 4.132812 -7.410156 4.03125 -7.640625 C 3.75 -7.316406 3.488281 -7.007812 3.25 -6.71875 C 2.757812 -6.070312 2.285156 -5.445312 1.828125 -4.84375 C 1.304688 -4.1875 0.625 -3.851562 -0.21875 -3.84375 C -0.8125 -3.851562 -1.195312 -4.117188 -1.375 -4.640625 C -1.5 -5.054688 -1.570312 -5.488281 -1.59375 -5.9375 C -1.65625 -7.863281 -1.484375 -9.769531 -1.078125 -11.65625 C -0.992188 -11.957031 -0.867188 -12.21875 -0.703125 -12.4375 C -0.492188 -12.75 -0.191406 -12.875 0.203125 -12.8125 C 0.609375 -12.726562 0.8125 -12.46875 0.8125 -12.03125 C 0.789062 -11.6875 0.753906 -11.320312 0.703125 -10.9375 C 0.703125 -10.8125 0.695312 -10.675781 0.6875 -10.53125 C 0.5625 -9.40625 0.492188 -8.535156 0.484375 -7.921875 C 0.472656 -7.304688 0.488281 -6.890625 0.53125 -6.671875 C 0.582031 -6.460938 0.648438 -6.40625 0.734375 -6.5 C 1.128906 -6.78125 1.457031 -7.113281 1.71875 -7.5 C 1.976562 -7.894531 2.21875 -8.289062 2.4375 -8.6875 C 2.613281 -9.039062 2.8125 -9.398438 3.03125 -9.765625 C 3.269531 -10.109375 3.5 -10.457031 3.71875 -10.8125 C 3.875 -11.144531 4.0625 -11.472656 4.28125 -11.796875 C 4.46875 -12.085938 4.695312 -12.34375 4.96875 -12.5625 C 5.351562 -12.820312 5.765625 -12.863281 6.203125 -12.6875 C 6.398438 -12.59375 6.523438 -12.460938 6.578125 -12.296875 C 6.628906 -12.140625 6.644531 -11.960938 6.625 -11.765625 C 6.570312 -11.066406 6.523438 -10.363281 6.484375 -9.65625 C 6.472656 -9.28125 6.453125 -8.925781 6.421875 -8.59375 C 6.398438 -8.300781 6.390625 -8.015625 6.390625 -7.734375 C 6.378906 -7.628906 6.394531 -7.523438 6.4375 -7.421875 C 6.476562 -7.328125 6.550781 -7.273438 6.65625 -7.265625 C 6.738281 -7.253906 6.804688 -7.265625 6.859375 -7.296875 C 6.910156 -7.328125 6.960938 -7.378906 7.015625 -7.453125 C 7.296875 -7.773438 7.535156 -8.117188 7.734375 -8.484375 C 8.160156 -9.265625 8.582031 -10.035156 9 -10.796875 C 9.320312 -11.429688 9.644531 -12.046875 9.96875 -12.640625 C 10.664062 -13.972656 11.394531 -15.285156 12.15625 -16.578125 C 12.375 -17.066406 12.753906 -17.375 13.296875 -17.5 Z M 13.296875 -17.5 "/></g></g><g transform="translate(251.502889, 118.639097)"><g><path d="M 2.09375 -4.546875 L 2.046875 -4.53125 C 0.359375 -4.289062 -0.804688 -4.484375 -1.453125 -5.109375 C -2.097656 -5.742188 -2.234375 -6.703125 -1.859375 -7.984375 C -1.515625 -8.972656 -1.03125 -9.863281 -0.40625 -10.65625 C -0.175781 -10.9375 0.0507812 -11.171875 0.28125 -11.359375 C 0.519531 -11.546875 0.8125 -11.664062 1.15625 -11.71875 C 1.34375 -11.78125 1.566406 -11.78125 1.828125 -11.71875 C 1.921875 -11.707031 2.007812 -11.6875 2.09375 -11.65625 C 2.28125 -11.726562 2.457031 -11.828125 2.625 -11.953125 C 2.664062 -11.992188 2.722656 -12.03125 2.796875 -12.0625 C 3.160156 -12.269531 3.554688 -12.398438 3.984375 -12.453125 C 4.148438 -12.472656 4.328125 -12.5 4.515625 -12.53125 C 5.210938 -12.539062 5.769531 -12.34375 6.1875 -11.9375 C 6.613281 -11.53125 6.828125 -10.976562 6.828125 -10.28125 C 6.835938 -9.875 6.773438 -9.472656 6.640625 -9.078125 C 5.703125 -6.492188 4.222656 -4.988281 2.203125 -4.5625 Z M 3.796875 -11.15625 C 2.890625 -11.050781 2.125 -10.660156 1.5 -9.984375 C 0.882812 -9.316406 0.460938 -8.59375 0.234375 -7.8125 C 0.015625 -7.03125 0.0195312 -6.414062 0.25 -5.96875 C 0.476562 -5.53125 0.976562 -5.472656 1.75 -5.796875 C 2.625 -6.234375 3.34375 -6.882812 3.90625 -7.75 C 4.476562 -8.625 4.785156 -9.414062 4.828125 -10.125 C 4.878906 -10.832031 4.535156 -11.175781 3.796875 -11.15625 Z M 3.796875 -11.15625 "/></g></g><g transform="translate(260.670525, 117.150055)"><g><path d="M 6.546875 -11.9375 C 6.578125 -11.125 6.289062 -10.546875 5.6875 -10.203125 C 5.09375 -9.859375 4.832031 -10.140625 4.90625 -11.046875 C 4.988281 -11.960938 4.5625 -12.125 3.625 -11.53125 C 2.6875 -10.9375 1.941406 -10.257812 1.390625 -9.5 C 0.535156 -8.300781 -0.179688 -7.035156 -0.765625 -5.703125 C -0.828125 -5.578125 -0.875 -5.484375 -0.90625 -5.421875 C -1.09375 -5.046875 -1.269531 -4.6875 -1.4375 -4.34375 C -1.5625 -4.125 -1.722656 -3.972656 -1.921875 -3.890625 C -2.117188 -3.804688 -2.316406 -3.765625 -2.515625 -3.765625 C -2.710938 -3.753906 -2.875 -3.800781 -3 -3.90625 C -3.125 -4.007812 -3.160156 -4.160156 -3.109375 -4.359375 C -3.035156 -4.691406 -2.9375 -5.023438 -2.8125 -5.359375 C -2.09375 -7.453125 -1.351562 -9.550781 -0.59375 -11.65625 C -0.582031 -11.6875 -0.578125 -11.710938 -0.578125 -11.734375 C -0.472656 -12.066406 -0.34375 -12.378906 -0.1875 -12.671875 C 0.0078125 -12.953125 0.257812 -13.09375 0.5625 -13.09375 C 0.863281 -13.09375 1.09375 -12.953125 1.25 -12.671875 C 1.445312 -12.285156 1.597656 -12.070312 1.703125 -12.03125 C 1.804688 -11.988281 2.003906 -12.054688 2.296875 -12.234375 C 2.953125 -12.609375 3.597656 -12.898438 4.234375 -13.109375 C 4.878906 -13.328125 5.421875 -13.390625 5.859375 -13.296875 C 6.296875 -13.210938 6.523438 -12.757812 6.546875 -11.9375 Z M 6.546875 -11.9375 "/></g></g><g transform="translate(269.302951, 115.747944)"><g><path d="M 11.953125 -10.984375 C 12.066406 -10.878906 12.109375 -10.753906 12.078125 -10.609375 C 12.054688 -10.472656 11.988281 -10.34375 11.875 -10.21875 C 11.195312 -9.382812 10.40625 -8.671875 9.5 -8.078125 C 7.945312 -7.023438 6.265625 -6.257812 4.453125 -5.78125 C 3.015625 -5.394531 1.597656 -5.390625 0.203125 -5.765625 C -0.304688 -5.898438 -0.644531 -5.722656 -0.8125 -5.234375 C -1.039062 -4.546875 -1.28125 -3.859375 -1.53125 -3.171875 C -1.644531 -2.785156 -1.773438 -2.382812 -1.921875 -1.96875 C -1.929688 -1.914062 -1.941406 -1.859375 -1.953125 -1.796875 C -2.023438 -1.660156 -2.085938 -1.53125 -2.140625 -1.40625 C -2.191406 -1.28125 -2.304688 -1.179688 -2.484375 -1.109375 C -2.578125 -1.066406 -2.675781 -1.035156 -2.78125 -1.015625 C -2.882812 -1.003906 -2.976562 -1.015625 -3.0625 -1.046875 C -3.144531 -1.097656 -3.21875 -1.164062 -3.28125 -1.25 C -3.34375 -1.332031 -3.378906 -1.425781 -3.390625 -1.53125 C -3.367188 -1.882812 -3.3125 -2.234375 -3.21875 -2.578125 C -3.019531 -3.378906 -2.820312 -4.160156 -2.625 -4.921875 C -2.125 -6.859375 -1.59375 -8.78125 -1.03125 -10.6875 C 0.5625 -15.96875 2.03125 -21.28125 3.375 -26.625 C 3.457031 -27.132812 3.625 -27.601562 3.875 -28.03125 C 4.050781 -28.34375 4.347656 -28.46875 4.765625 -28.40625 C 5.222656 -28.3125 5.398438 -28.035156 5.296875 -27.578125 C 5.160156 -26.691406 5.003906 -25.789062 4.828125 -24.875 C 3.867188 -20.664062 2.742188 -16.503906 1.453125 -12.390625 C 1.191406 -11.515625 1.132812 -10.976562 1.28125 -10.78125 C 1.425781 -10.59375 1.695312 -10.617188 2.09375 -10.859375 C 2.5 -11.109375 2.957031 -11.429688 3.46875 -11.828125 C 3.832031 -12.117188 4.207031 -12.378906 4.59375 -12.609375 C 4.65625 -12.679688 4.710938 -12.734375 4.765625 -12.765625 C 5.210938 -13.128906 5.71875 -13.367188 6.28125 -13.484375 C 6.5 -13.515625 6.679688 -13.441406 6.828125 -13.265625 C 6.898438 -13.148438 6.914062 -13.039062 6.875 -12.9375 C 6.84375 -12.832031 6.785156 -12.753906 6.703125 -12.703125 C 5.921875 -12.046875 5.128906 -11.421875 4.328125 -10.828125 C 3.941406 -10.554688 3.53125 -10.269531 3.09375 -9.96875 C 2.675781 -9.695312 2.269531 -9.40625 1.875 -9.09375 C 1.601562 -8.875 1.359375 -8.625 1.140625 -8.34375 C 0.660156 -7.644531 0.804688 -7.15625 1.578125 -6.875 C 2.203125 -6.707031 2.8125 -6.664062 3.40625 -6.75 C 4.007812 -6.84375 4.59375 -7.007812 5.15625 -7.25 C 6.914062 -7.9375 8.515625 -8.875 9.953125 -10.0625 C 10.066406 -10.15625 10.179688 -10.238281 10.296875 -10.3125 C 10.566406 -10.5625 10.851562 -10.785156 11.15625 -10.984375 C 11.28125 -11.066406 11.421875 -11.113281 11.578125 -11.125 C 11.734375 -11.132812 11.859375 -11.085938 11.953125 -10.984375 Z M 11.953125 -10.984375 "/></g></g></g><g clip-path="url(#9569969888)"><g clip-path="url(#b872be03da)"><path fill="#000000" d="M 288.492188 102.539062 L 292.539062 102.539062 L 292.539062 106.589844 L 288.492188 106.589844 Z M 288.492188 102.539062 " fill-opacity="1" fill-rule="nonzero"/></g></g><g clip-path="url(#2c99f50348)"><g clip-path="url(#d4e4a201c9)"><path fill="#0571d3" d="M 73.890625 113.808594 L 344.871094 113.808594 L 344.871094 199.558594 L 73.890625 199.558594 Z M 73.890625 113.808594 " fill-opacity="1" fill-rule="nonzero"/></g></g><g clip-path="url(#424faa4c7e)"><g clip-path="url(#3cdffbc0bc)"><path fill="#0571d3" d="M 134.265625 0 L 141.644531 0 L 141.644531 7.238281 L 134.265625 7.238281 Z M 134.265625 0 " fill-opacity="1" fill-rule="nonzero"/></g></g></svg>